<svg xmlns="http://www.w3.org/2000/svg" viewBox="0 0 228.21 179.69"><defs><style>.cls-1{fill:#439154;}.cls-2{fill:#fff;}.cls-3{fill:#bf3a43;}</style></defs><title>excel_mail_1</title><g id="Layer_2" data-name="Layer 2"><g id="Layer_1-2" data-name="Layer 1"><g id="excel_download" data-name="excel download"><g id="excel"><g id="Group_72" data-name="Group 72"><g id="Group_71" data-name="Group 71"><g id="excel-2"><path id="Path_109" data-name="Path 109" class="cls-1" d="M151.07,18h-55V36h18.19V48.12H96.06V60h18V72h-18v12h18v12h-18v12h18v12h-18v18h55a5.15,5.15,0,0,0,5-5.23V23.23A5.14,5.14,0,0,0,151.07,18Zm-7,102.06h-24v-12h24Zm0-24h-24v-12h24Zm0-24h-24V60h24Zm0-24h-24V36h24Z"/><path id="Path_110" data-name="Path 110" class="cls-1" d="M0,17.34V138.76l90.06,17.36V0Zm57,91.21L46.48,88.74a18,18,0,0,1-1.23-4.06h-.16a30.06,30.06,0,0,1-1.4,4.24L33.17,108.55H16.85L36.23,78.14,18.51,47.7H35.17L43.86,66a31,31,0,0,1,1.83,5.13h.17q.51-1.78,1.91-5.3l9.67-18.07H72.7L54.46,77.88,73.2,108.54Z"/></g></g></g></g><g id="download"><g id="Path_104" data-name="Path 104"><path class="cls-2" d="M168.49,175.78A55.82,55.82,0,1,1,224.3,120,55.88,55.88,0,0,1,168.49,175.78Z"/><path class="cls-3" d="M168.49,68.05A51.92,51.92,0,1,0,220.4,120a52,52,0,0,0-51.91-51.92m0-7.8A59.72,59.72,0,1,1,108.77,120,59.72,59.72,0,0,1,168.49,60.25Z"/></g></g></g><g id="Layer_2-2" data-name="Layer 2"><g id="Layer_1-2-2" data-name="Layer 1-2"><path class="cls-3" d="M203.66,135.55c-.14.36-.31.7-.43,1.06a10.56,10.56,0,0,1-10.07,7.62q-23.46.06-46.93,0a10.52,10.52,0,0,1-10.48-10.74V106.84a10.56,10.56,0,0,1,10.61-10.76q23.34-.06,46.67,0a10.62,10.62,0,0,1,10.25,7.75c.1.32.25.63.38.94Zm-61.59-31.66-.44,0a20.48,20.48,0,0,0-.57,3.52c-.05,8.4,0,16.8,0,25.21,0,4.22,2.05,6.29,6.25,6.29h45.23c3.6,0,5.85-2.12,5.87-5.57q.06-13.2,0-26.4a17.22,17.22,0,0,0-.74-3.38c-.51.57-.75.81-1,1.08l-20.22,24.41c-3.92,4.74-9.86,4.71-13.76,0L148,111.14Q145.06,107.51,142.07,103.89Zm5-2.4.94,1.21,18.48,22.57c2.16,2.64,3.95,2.63,6.14,0l17.51-21.15c.67-.79,1.32-1.61,2.13-2.6Z"/></g></g></g></g></svg>