<svg id="Layer_1" data-name="Layer 1" xmlns="http://www.w3.org/2000/svg" viewBox="0 0 228.21 179.69"><defs><style>.cls-1{fill:#439154;}.cls-2{fill:#fff;}.cls-3,.cls-4{fill:#232323;}.cls-4,.cls-5{stroke:#232323;}.cls-4{stroke-width:4px;}.cls-5{fill:none;stroke-linecap:round;stroke-width:7px;}</style></defs><title>excel_download</title><g id="excel_download" data-name="excel download"><g id="excel"><g id="Group_72" data-name="Group 72"><g id="Group_71" data-name="Group 71"><g id="excel-2"><path id="Path_109" data-name="Path 109" class="cls-1" d="M163.24,57.89h-55v18h18.19V88H108.24V99.91h18v12h-18v12h18v12h-18v12h18v12h-18v18h55a5.15,5.15,0,0,0,5-5.22V63.11A5.14,5.14,0,0,0,163.24,57.89Zm-7,102.06h-24v-12h24Zm0-24h-24v-12h24Zm0-24h-24v-12h24Zm0-24h-24v-12h24Z" transform="translate(-12.18 -39.88)"/><path id="Path_110" data-name="Path 110" class="cls-1" d="M12.18,57.22V178.63L102.23,196V39.88Zm57,91.21-10.5-19.81a17.4,17.4,0,0,1-1.23-4.07h-.16a30.19,30.19,0,0,1-1.4,4.25L45.35,148.43H29L48.41,118,30.68,87.58H47.35L56,105.84A32.26,32.26,0,0,1,57.86,111H58q.51-1.77,1.91-5.3l9.66-18.06H84.87L66.64,117.76l18.73,30.66Z" transform="translate(-12.18 -39.88)"/></g></g></g></g><g id="download"><g id="Path_104" data-name="Path 104"><path class="cls-2" d="M180.66,215.66a55.82,55.82,0,1,1,55.82-55.82A55.88,55.88,0,0,1,180.66,215.66Z" transform="translate(-12.18 -39.88)"/><path class="cls-3" d="M180.66,107.93a51.92,51.92,0,1,0,51.92,51.91,52,52,0,0,0-51.92-51.91m0-7.81a59.72,59.72,0,1,1-59.72,59.72A59.72,59.72,0,0,1,180.66,100.12Z" transform="translate(-12.18 -39.88)"/></g><g id="back"><path id="Path_76" data-name="Path 76" class="cls-4" d="M203.77,165.61a1.55,1.55,0,0,0,0-2.17,1.57,1.57,0,0,0-2.17,0l-19.07,19.08-19.08-19.08a1.56,1.56,0,0,0-2.17,2.17l20.17,20.17a1.57,1.57,0,0,0,2.17,0Z" transform="translate(-12.18 -39.88)"/><path id="Path_105" data-name="Path 105" class="cls-5" d="M182.6,183.6V138.27" transform="translate(-12.18 -39.88)"/></g></g></g></svg>