<svg xmlns="http://www.w3.org/2000/svg" viewBox="0 0 244.54 210.01"><defs><style>.cls-1{fill:#db314a;}.cls-2{fill:#fff;stroke:#db314a;stroke-linecap:round;stroke-width:5px;}</style></defs><title>pdf mail</title><g id="Layer_2" data-name="Layer 2"><g id="Layer_1-2" data-name="Layer 1"><g id="pdf-file-format-symbol"><path id="Path_106" data-name="Path 106" class="cls-1" d="M45.45,74.32a15.56,15.56,0,0,0-3.47.37V97.43a13.54,13.54,0,0,0,2.7.21,10.66,10.66,0,0,0,11.73-9.46,10.55,10.55,0,0,0-.06-2.75,9.87,9.87,0,0,0-8.5-11.08A9.64,9.64,0,0,0,45.45,74.32Z"/><path id="Path_107" data-name="Path 107" class="cls-1" d="M104.41,161.43H158.6A11.35,11.35,0,0,0,170,150.08v-124A11.35,11.35,0,0,0,158.6,14.77H104.41V0L0,13.93V162.39l6.64.9,97.76,13.39ZM158.6,155H105.11a4.05,4.05,0,0,1-.7-.07V106.26a105.59,105.59,0,0,1,40-.24l1.58,3.07c6.39,12.08,13.21,12,15.85,11.41a5.56,5.56,0,0,0,.9-.29l.36-.19a3.92,3.92,0,0,0,.32-.25v30.35A4.86,4.86,0,0,1,158.6,155Zm-49.66-54.49c8.38-10.21,15.15-19.75,19.5-26.21h0l.05-.07c3.42,7.18,9.07,18.37,12.95,26h0l.13.25a110,110,0,0,0-32.66.16l.14-.17Zm19.71-47.67c.33-.59.83-.75,1.71-.71a3.22,3.22,0,0,1,2.41,1.31c.4.71,1,3-2.12,8.49h0s-.39.66-1.15,1.85A17.4,17.4,0,0,1,128.65,52.82ZM151,108a38,38,0,0,1,8.5,4.49,5.93,5.93,0,0,1,1.26,3.17.17.17,0,0,1,0,.1c-1.06.19-5.13.32-9.77-7.76ZM105.11,21.25H158.6a4.87,4.87,0,0,1,4.87,4.87v83.63l-.36-.49-.21-.27-.27-.2a45.61,45.61,0,0,0-14.88-6.94c-4.09-8-12.57-24.61-16.11-32.39,2.06-3.17,3.17-5,3.21-5.11,3.21-5.72,3.91-10.18,2.14-13.34a8,8,0,0,0-6.45-3.76,6.44,6.44,0,0,0-6.13,3.17,23.25,23.25,0,0,0,1.16,17.13c.12.38.31.86.56,1.46a353.49,353.49,0,0,1-21.72,29.35v-77A5.35,5.35,0,0,1,105.11,21.25ZM26.74,87.34a14,14,0,0,1-10.29,3.48,14.82,14.82,0,0,1-2.4-.17v11.92l-6.86-.19V69.84a53.81,53.81,0,0,1,9.39-.9,14.26,14.26,0,0,1,9.67,2.49,10,10,0,0,1,3.45,7.83A11.21,11.21,0,0,1,26.74,87.34ZM58.92,99.58A24,24,0,0,1,43,103.73a62.87,62.87,0,0,1-8.56-.76V69.21a64.88,64.88,0,0,1,10.22-1A21.64,21.64,0,0,1,58.83,71.7a15.7,15.7,0,0,1,6,13.47,18,18,0,0,1-5.92,14.4ZM70.24,67.9l23.07-.56v6.94l-14.67.24v8.35h13.7v6.87l-13.7-.1v14.73l-8.39-.23V67.89h0Z"/><path id="Path_108" data-name="Path 108" class="cls-1" d="M17,74.63a11,11,0,0,0-2.91.34v9.88a10.27,10.27,0,0,0,2.35.19,5.4,5.4,0,0,0,6.12-5.5C22.48,76.4,20.51,74.56,17,74.63Z"/><g id="download"><g id="Path_104" data-name="Path 104"><path class="cls-2" d="M177.84,207.51a64.2,64.2,0,1,1,64.2-64.2A64.27,64.27,0,0,1,177.84,207.51Z"/><path class="cls-2" d="M177.84,83.6a59.71,59.71,0,1,0,59.71,59.71A59.77,59.77,0,0,0,177.84,83.6"/></g></g><g id="Layer_2-2" data-name="Layer 2"><g id="Layer_1-2-2" data-name="Layer 1-2"><path class="cls-1" d="M211.79,158.7c-.14.36-.31.71-.42,1.07a10.57,10.57,0,0,1-10.07,7.61q-23.48.08-46.94,0a10.52,10.52,0,0,1-10.48-10.74V130a10.57,10.57,0,0,1,10.62-10.76q23.34-.06,46.67,0A10.64,10.64,0,0,1,211.42,127c.1.32.25.63.38.94ZM150.21,127l-.45,0a21.45,21.45,0,0,0-.57,3.53c-.05,8.39,0,16.79,0,25.2,0,4.22,2.06,6.29,6.25,6.29h45.23c3.6,0,5.86-2.12,5.87-5.57q.06-13.2,0-26.39a17.15,17.15,0,0,0-.74-3.39c-.51.57-.75.82-1,1.08Q194.67,140,184.57,152.22c-3.93,4.74-9.86,4.72-13.77-.05l-14.64-17.88Zm5-2.4c.4.53.67.88.94,1.21l18.48,22.58c2.16,2.64,4,2.62,6.14,0q8.74-10.59,17.51-21.16c.66-.79,1.31-1.6,2.12-2.6Z"/></g></g></g></g></g></svg>